# MagicaVoxel @ Ephtracy

# group
o 

# material
mtllib shotgun.mtl
usemtl palette

# normals
vn -1 0 0
vn 1 0 0
vn 0 0 1
vn 0 0 -1
vn 0 -1 0
vn 0 1 0

# texcoords
vt 0.228516 0.5
vt 0.232422 0.5
vt 0.970703 0.5
vt 0.974609 0.5
vt 0.994141 0.5

# verts
v -1 0.5 0.1
v -1 0.5 0
v -1 0.6 0.2
v -1 0.6 0.1
v -1 0.6 0
v -1 0.6 -0.1
v -1 0.7 0.1
v -1 0.7 0
v -1 0.8 0.2
v -1 0.8 -0.1
v -0.9 0.5 0.2
v -0.9 0.5 0.1
v -0.9 0.5 0
v -0.9 0.5 -0.1
v -0.9 0.6 0.2
v -0.9 0.6 0.1
v -0.9 0.6 0
v -0.9 0.6 -0.1
v -0.8 0.8 0.1
v -0.8 0.8 0
v -0.8 0.9 0.1
v -0.8 0.9 0
v -0.5 0.3 0.2
v -0.5 0.3 -0.1
v -0.5 0.4 0.1
v -0.5 0.4 0
v -0.5 0.6 0.2
v -0.5 0.6 0.1
v -0.5 0.6 0
v -0.5 0.6 -0.1
v -0.5 0.8 0.2
v -0.5 0.8 0.1
v -0.5 0.8 0
v -0.5 0.8 -0.1
v -0.5 0.9 0.2
v -0.5 0.9 0.1
v -0.5 0.9 0
v -0.5 0.9 -0.1
v -0.4 0.9 0.1
v -0.4 0.9 0
v -0.4 1 0.1
v -0.4 1 0
v -0.1 0.6 0.1
v -0.1 0.6 0
v -0.1 0.7 0.1
v -0.1 0.7 0
v 0.4 0.6 0.2
v 0.4 0.6 -0.1
v 0.4 0.7 0.3
v 0.4 0.7 0.2
v 0.4 0.7 -0.1
v 0.4 0.7 -0.2
v 0.4 0.8 0.3
v 0.4 0.8 0.2
v 0.4 0.8 -0.1
v 0.4 0.8 -0.2
v 0.8 0.9 0.1
v 0.8 0.9 0
v 0.8 1 0.1
v 0.8 1 0
v -0.7 0.5 0.2
v -0.7 0.5 -0.1
v -0.7 0.6 0.2
v -0.7 0.6 -0.1
v -0.3 0.3 0.2
v -0.3 0.3 0.1
v -0.3 0.3 0
v -0.3 0.3 -0.1
v -0.3 0.6 0.2
v -0.3 0.6 0.1
v -0.3 0.6 0
v -0.3 0.6 -0.1
v -0.2 0.3 0.1
v -0.2 0.3 0
v -0.2 0.5 0.1
v -0.2 0.5 0
v -0.2 0.6 0.2
v -0.2 0.6 0.1
v -0.2 0.6 0
v -0.2 0.6 -0.1
v -0.2 0.7 0.2
v -0.2 0.7 -0.1
v -0.1 0.5 0.1
v -0.1 0.5 0
v -0.1 0.6 0.1
v -0.1 0.6 0
v -0.1 0.9 0.1
v -0.1 0.9 0
v -0.1 1 0.1
v -0.1 1 0
v 0.1 0.6 0.1
v 0.1 0.6 0
v 0.1 0.7 0.1
v 0.1 0.7 0
v 0.7 0.6 0.2
v 0.7 0.6 -0.1
v 0.7 0.7 0.3
v 0.7 0.7 0.2
v 0.7 0.7 -0.1
v 0.7 0.7 -0.2
v 0.7 0.8 0.3
v 0.7 0.8 0.2
v 0.7 0.8 -0.1
v 0.7 0.8 -0.2
v 0.9 0.8 0.1
v 0.9 0.8 0
v 0.9 0.9 0.1
v 0.9 0.9 0
v 1 0.7 0.2
v 1 0.7 -0.1
v 1 0.8 0.1
v 1 0.8 0
v 1 0.9 0.2
v 1 0.9 0.1
v 1 0.9 0
v 1 0.9 -0.1
v 1 1 0.1
v 1 1 0
v 0.4 0.7 0.3
v 0.4 0.8 0.3
v 0.7 0.7 0.3
v 0.7 0.8 0.3
v -1 0.6 0.2
v -1 0.8 0.2
v -0.9 0.5 0.2
v -0.9 0.6 0.2
v -0.7 0.5 0.2
v -0.7 0.6 0.2
v -0.5 0.3 0.2
v -0.5 0.6 0.2
v -0.5 0.8 0.2
v -0.5 0.9 0.2
v -0.3 0.3 0.2
v -0.3 0.6 0.2
v -0.2 0.6 0.2
v -0.2 0.7 0.2
v 0.4 0.6 0.2
v 0.4 0.7 0.2
v 0.4 0.8 0.2
v 0.7 0.6 0.2
v 0.7 0.7 0.2
v 0.7 0.8 0.2
v 1 0.7 0.2
v 1 0.9 0.2
v -1 0.5 0.1
v -1 0.6 0.1
v -0.9 0.5 0.1
v -0.9 0.6 0.1
v -0.8 0.8 0.1
v -0.8 0.9 0.1
v -0.5 0.8 0.1
v -0.5 0.9 0.1
v -0.4 0.9 0.1
v -0.4 1 0.1
v -0.3 0.3 0.1
v -0.3 0.6 0.1
v -0.2 0.3 0.1
v -0.2 0.5 0.1
v -0.2 0.6 0.1
v -0.1 0.5 0.1
v -0.1 0.6 0.1
v -0.1 0.7 0.1
v -0.1 0.9 0.1
v -0.1 1 0.1
v 0.1 0.6 0.1
v 0.1 0.7 0.1
v 0.8 0.9 0.1
v 0.8 1 0.1
v 1 0.9 0.1
v 1 1 0.1
v 0.9 0.8 0
v 0.9 0.9 0
v 1 0.8 0
v 1 0.9 0
v 0.9 0.8 0.1
v 0.9 0.9 0.1
v 1 0.8 0.1
v 1 0.9 0.1
v -1 0.5 0
v -1 0.6 0
v -0.9 0.5 0
v -0.9 0.6 0
v -0.8 0.8 0
v -0.8 0.9 0
v -0.5 0.8 0
v -0.5 0.9 0
v -0.4 0.9 0
v -0.4 1 0
v -0.3 0.3 0
v -0.3 0.6 0
v -0.2 0.3 0
v -0.2 0.5 0
v -0.2 0.6 0
v -0.1 0.5 0
v -0.1 0.6 0
v -0.1 0.7 0
v -0.1 0.9 0
v -0.1 1 0
v 0.1 0.6 0
v 0.1 0.7 0
v 0.8 0.9 0
v 0.8 1 0
v 1 0.9 0
v 1 1 0
v -1 0.6 -0.1
v -1 0.8 -0.1
v -0.9 0.5 -0.1
v -0.9 0.6 -0.1
v -0.7 0.5 -0.1
v -0.7 0.6 -0.1
v -0.5 0.3 -0.1
v -0.5 0.6 -0.1
v -0.5 0.8 -0.1
v -0.5 0.9 -0.1
v -0.3 0.3 -0.1
v -0.3 0.6 -0.1
v -0.2 0.6 -0.1
v -0.2 0.7 -0.1
v 0.4 0.6 -0.1
v 0.4 0.7 -0.1
v 0.4 0.8 -0.1
v 0.7 0.6 -0.1
v 0.7 0.7 -0.1
v 0.7 0.8 -0.1
v 1 0.7 -0.1
v 1 0.9 -0.1
v 0.4 0.7 -0.2
v 0.4 0.8 -0.2
v 0.7 0.7 -0.2
v 0.7 0.8 -0.2
v -0.5 0.3 0.2
v -0.3 0.3 0.2
v -0.3 0.3 0.1
v -0.2 0.3 0.1
v -0.3 0.3 0
v -0.2 0.3 0
v -0.5 0.3 -0.1
v -0.3 0.3 -0.1
v -0.9 0.5 0.2
v -0.7 0.5 0.2
v -1 0.5 0.1
v -0.9 0.5 0.1
v -0.2 0.5 0.1
v -0.1 0.5 0.1
v -1 0.5 0
v -0.9 0.5 0
v -0.2 0.5 0
v -0.1 0.5 0
v -0.9 0.5 -0.1
v -0.7 0.5 -0.1
v -1 0.6 0.2
v -0.9 0.6 0.2
v -0.7 0.6 0.2
v -0.5 0.6 0.2
v -0.3 0.6 0.2
v -0.2 0.6 0.2
v 0.4 0.6 0.2
v 0.7 0.6 0.2
v -1 0.6 0.1
v -0.9 0.6 0.1
v -0.5 0.6 0.1
v -0.3 0.6 0.1
v -0.2 0.6 0.1
v -0.1 0.6 0.1
v 0.1 0.6 0.1
v -1 0.6 0
v -0.9 0.6 0
v -0.5 0.6 0
v -0.3 0.6 0
v -0.2 0.6 0
v -0.1 0.6 0
v 0.1 0.6 0
v -1 0.6 -0.1
v -0.9 0.6 -0.1
v -0.7 0.6 -0.1
v -0.5 0.6 -0.1
v -0.3 0.6 -0.1
v -0.2 0.6 -0.1
v 0.4 0.6 -0.1
v 0.7 0.6 -0.1
v 0.4 0.7 0.3
v 0.7 0.7 0.3
v -0.2 0.7 0.2
v 0.4 0.7 0.2
v 0.7 0.7 0.2
v 1 0.7 0.2
v -0.1 0.7 0.1
v 0.1 0.7 0.1
v -0.1 0.7 0
v 0.1 0.7 0
v -0.2 0.7 -0.1
v 0.4 0.7 -0.1
v 0.7 0.7 -0.1
v 1 0.7 -0.1
v 0.4 0.7 -0.2
v 0.7 0.7 -0.2
v 0.9 0.9 0.1
v 1 0.9 0.1
v 0.9 0.9 0
v 1 0.9 0
v -0.2 0.6 0.1
v -0.1 0.6 0.1
v -0.2 0.6 0
v -0.1 0.6 0
v 0.4 0.8 0.3
v 0.7 0.8 0.3
v -1 0.8 0.2
v -0.5 0.8 0.2
v 0.4 0.8 0.2
v 0.7 0.8 0.2
v -0.8 0.8 0.1
v -0.5 0.8 0.1
v 0.9 0.8 0.1
v 1 0.8 0.1
v -0.8 0.8 0
v -0.5 0.8 0
v 0.9 0.8 0
v 1 0.8 0
v -1 0.8 -0.1
v -0.5 0.8 -0.1
v 0.4 0.8 -0.1
v 0.7 0.8 -0.1
v 0.4 0.8 -0.2
v 0.7 0.8 -0.2
v -0.5 0.9 0.2
v 1 0.9 0.2
v -0.8 0.9 0.1
v -0.5 0.9 0.1
v -0.4 0.9 0.1
v -0.1 0.9 0.1
v 0.8 0.9 0.1
v 1 0.9 0.1
v -0.8 0.9 0
v -0.5 0.9 0
v -0.4 0.9 0
v -0.1 0.9 0
v 0.8 0.9 0
v 1 0.9 0
v -0.5 0.9 -0.1
v 1 0.9 -0.1
v -0.4 1 0.1
v -0.1 1 0.1
v 0.8 1 0.1
v 1 1 0.1
v -0.4 1 0
v -0.1 1 0
v 0.8 1 0
v 1 1 0

# faces
f 4/2/1 2/2/1 1/2/1
f 5/2/1 2/2/1 4/2/1
f 7/2/1 4/2/1 3/2/1
f 7/1/1 5/1/1 4/1/1
f 8/2/1 6/2/1 5/2/1
f 8/1/1 5/1/1 7/1/1
f 9/2/1 7/2/1 3/2/1
f 9/2/1 8/2/1 7/2/1
f 10/2/1 6/2/1 8/2/1
f 10/2/1 8/2/1 9/2/1
f 15/2/1 12/2/1 11/2/1
f 16/2/1 12/2/1 15/2/1
f 17/2/1 14/2/1 13/2/1
f 18/2/1 14/2/1 17/2/1
f 21/2/1 20/2/1 19/2/1
f 22/2/1 20/2/1 21/2/1
f 25/3/1 24/3/1 23/3/1
f 26/3/1 24/3/1 25/3/1
f 27/3/1 25/3/1 23/3/1
f 28/4/1 26/4/1 25/4/1
f 28/3/1 25/3/1 27/3/1
f 29/3/1 24/3/1 26/3/1
f 29/4/1 26/4/1 28/4/1
f 30/3/1 24/3/1 29/3/1
f 35/3/1 32/3/1 31/3/1
f 36/3/1 32/3/1 35/3/1
f 37/3/1 34/3/1 33/3/1
f 38/3/1 34/3/1 37/3/1
f 41/4/1 40/4/1 39/4/1
f 42/4/1 40/4/1 41/4/1
f 45/2/1 44/2/1 43/2/1
f 46/2/1 44/2/1 45/2/1
f 50/2/1 48/2/1 47/2/1
f 51/2/1 48/2/1 50/2/1
f 53/2/1 50/2/1 49/2/1
f 54/2/1 50/2/1 53/2/1
f 55/2/1 52/2/1 51/2/1
f 56/2/1 52/2/1 55/2/1
f 59/4/1 58/4/1 57/4/1
f 60/4/1 58/4/1 59/4/1
f 61/2/2 62/2/2 63/2/2
f 63/2/2 62/2/2 64/2/2
f 65/3/2 66/3/2 69/3/2
f 69/3/2 66/3/2 70/3/2
f 67/3/2 68/3/2 71/3/2
f 71/3/2 68/3/2 72/3/2
f 73/2/2 74/2/2 75/2/2
f 75/2/2 74/2/2 76/2/2
f 78/3/2 79/3/2 81/3/2
f 79/3/2 80/3/2 81/3/2
f 77/3/2 78/3/2 81/3/2
f 81/3/2 80/3/2 82/3/2
f 83/2/2 84/2/2 85/2/2
f 85/2/2 84/2/2 86/2/2
f 87/4/2 88/4/2 89/4/2
f 89/4/2 88/4/2 90/4/2
f 91/2/2 92/2/2 93/2/2
f 93/2/2 92/2/2 94/2/2
f 95/2/2 96/2/2 98/2/2
f 98/2/2 96/2/2 99/2/2
f 97/2/2 98/2/2 101/2/2
f 101/2/2 98/2/2 102/2/2
f 99/2/2 100/2/2 103/2/2
f 103/2/2 100/2/2 104/2/2
f 105/5/2 106/5/2 107/5/2
f 107/5/2 106/5/2 108/5/2
f 109/3/2 110/3/2 111/3/2
f 111/3/2 110/3/2 112/3/2
f 109/3/2 111/3/2 113/3/2
f 113/3/2 111/3/2 114/3/2
f 112/3/2 110/3/2 115/3/2
f 115/3/2 110/3/2 116/3/2
f 114/4/2 115/4/2 117/4/2
f 117/4/2 115/4/2 118/4/2
f 121/2/3 120/2/3 119/2/3
f 122/2/3 120/2/3 121/2/3
f 126/2/3 124/2/3 123/2/3
f 127/2/3 126/2/3 125/2/3
f 128/2/3 124/2/3 126/2/3
f 128/2/3 126/2/3 127/2/3
f 130/2/3 124/2/3 128/2/3
f 131/2/3 124/2/3 130/2/3
f 133/3/3 130/3/3 129/3/3
f 133/3/3 132/3/3 131/3/3
f 133/3/3 131/3/3 130/3/3
f 134/3/3 132/3/3 133/3/3
f 135/3/3 132/3/3 134/3/3
f 136/3/3 132/3/3 135/3/3
f 138/3/3 132/3/3 136/3/3
f 139/3/3 132/3/3 138/3/3
f 140/2/3 138/2/3 137/2/3
f 141/2/3 138/2/3 140/2/3
f 142/3/3 132/3/3 139/3/3
f 143/3/3 142/3/3 141/3/3
f 144/3/3 132/3/3 142/3/3
f 144/3/3 142/3/3 143/3/3
f 147/2/3 146/2/3 145/2/3
f 148/2/3 146/2/3 147/2/3
f 151/2/3 150/2/3 149/2/3
f 152/2/3 150/2/3 151/2/3
f 157/2/3 156/2/3 155/2/3
f 158/2/3 156/2/3 157/2/3
f 159/2/3 156/2/3 158/2/3
f 160/2/3 159/2/3 158/2/3
f 161/2/3 159/2/3 160/2/3
f 163/4/3 154/4/3 153/4/3
f 164/4/3 154/4/3 163/4/3
f 165/2/3 162/2/3 161/2/3
f 166/2/3 162/2/3 165/2/3
f 169/4/3 168/4/3 167/4/3
f 170/4/3 168/4/3 169/4/3
f 173/3/3 172/3/3 171/3/3
f 174/3/3 172/3/3 173/3/3
f 175/3/4 176/3/4 177/3/4
f 177/3/4 176/3/4 178/3/4
f 179/2/4 180/2/4 181/2/4
f 181/2/4 180/2/4 182/2/4
f 183/2/4 184/2/4 185/2/4
f 185/2/4 184/2/4 186/2/4
f 189/2/4 190/2/4 191/2/4
f 191/2/4 190/2/4 192/2/4
f 192/2/4 190/2/4 193/2/4
f 192/2/4 193/2/4 194/2/4
f 194/2/4 193/2/4 195/2/4
f 187/4/4 188/4/4 197/4/4
f 197/4/4 188/4/4 198/4/4
f 195/2/4 196/2/4 199/2/4
f 199/2/4 196/2/4 200/2/4
f 201/4/4 202/4/4 203/4/4
f 203/4/4 202/4/4 204/4/4
f 205/2/4 206/2/4 208/2/4
f 207/2/4 208/2/4 209/2/4
f 208/2/4 206/2/4 210/2/4
f 209/2/4 208/2/4 210/2/4
f 210/2/4 206/2/4 212/2/4
f 212/2/4 206/2/4 213/2/4
f 211/3/4 212/3/4 215/3/4
f 213/3/4 214/3/4 215/3/4
f 212/3/4 213/3/4 215/3/4
f 215/3/4 214/3/4 216/3/4
f 216/3/4 214/3/4 217/3/4
f 217/3/4 214/3/4 218/3/4
f 218/3/4 214/3/4 220/3/4
f 220/3/4 214/3/4 221/3/4
f 219/2/4 220/2/4 222/2/4
f 222/2/4 220/2/4 223/2/4
f 221/3/4 214/3/4 224/3/4
f 223/3/4 224/3/4 225/3/4
f 224/3/4 214/3/4 226/3/4
f 225/3/4 224/3/4 226/3/4
f 227/2/4 228/2/4 229/2/4
f 229/2/4 228/2/4 230/2/4
f 233/3/5 232/3/5 231/3/5
f 235/3/5 233/3/5 231/3/5
f 235/2/5 234/2/5 233/2/5
f 236/2/5 234/2/5 235/2/5
f 237/3/5 235/3/5 231/3/5
f 238/3/5 235/3/5 237/3/5
f 242/2/5 240/2/5 239/2/5
f 245/2/5 242/2/5 241/2/5
f 246/2/5 240/2/5 242/2/5
f 246/2/5 242/2/5 245/2/5
f 247/2/5 244/2/5 243/2/5
f 248/2/5 244/2/5 247/2/5
f 249/2/5 240/2/5 246/2/5
f 250/2/5 240/2/5 249/2/5
f 259/2/5 252/2/5 251/2/5
f 260/2/5 252/2/5 259/2/5
f 261/2/5 254/2/5 253/2/5
f 262/3/5 256/3/5 255/3/5
f 263/3/5 256/3/5 262/3/5
f 268/2/5 261/2/5 253/2/5
f 271/2/5 265/2/5 264/2/5
f 272/2/5 265/2/5 271/2/5
f 273/2/5 267/2/5 266/2/5
f 274/2/5 267/2/5 273/2/5
f 275/2/5 268/2/5 253/2/5
f 276/2/5 268/2/5 275/2/5
f 277/3/5 270/3/5 269/3/5
f 278/3/5 270/3/5 277/3/5
f 279/2/5 258/2/5 257/2/5
f 280/2/5 258/2/5 279/2/5
f 284/2/5 282/2/5 281/2/5
f 285/2/5 282/2/5 284/2/5
f 287/3/5 284/3/5 283/3/5
f 288/3/5 284/3/5 287/3/5
f 289/3/5 287/3/5 283/3/5
f 290/3/5 284/3/5 288/3/5
f 291/3/5 289/3/5 283/3/5
f 291/3/5 290/3/5 289/3/5
f 292/3/5 284/3/5 290/3/5
f 292/3/5 290/3/5 291/3/5
f 293/3/5 286/3/5 285/3/5
f 294/3/5 286/3/5 293/3/5
f 295/2/5 293/2/5 292/2/5
f 296/2/5 293/2/5 295/2/5
f 299/4/5 298/4/5 297/4/5
f 300/4/5 298/4/5 299/4/5
f 301/2/6 302/2/6 303/2/6
f 303/2/6 302/2/6 304/2/6
f 305/2/6 306/2/6 309/2/6
f 309/2/6 306/2/6 310/2/6
f 307/2/6 308/2/6 311/2/6
f 311/2/6 308/2/6 312/2/6
f 307/2/6 311/2/6 315/2/6
f 313/3/6 314/3/6 317/3/6
f 317/3/6 314/3/6 318/3/6
f 315/2/6 316/2/6 319/2/6
f 307/2/6 315/2/6 319/2/6
f 319/2/6 316/2/6 320/2/6
f 321/2/6 322/2/6 323/2/6
f 323/2/6 322/2/6 324/2/6
f 325/3/6 326/3/6 328/3/6
f 328/3/6 326/3/6 329/3/6
f 329/3/6 326/3/6 330/3/6
f 330/3/6 326/3/6 331/3/6
f 331/3/6 326/3/6 332/3/6
f 327/2/6 328/2/6 333/2/6
f 328/3/6 329/3/6 334/3/6
f 333/2/6 328/2/6 334/2/6
f 334/3/6 329/3/6 335/3/6
f 330/3/6 331/3/6 336/3/6
f 336/3/6 331/3/6 337/3/6
f 334/3/6 335/3/6 339/3/6
f 337/3/6 338/3/6 339/3/6
f 336/3/6 337/3/6 339/3/6
f 335/3/6 336/3/6 339/3/6
f 339/3/6 338/3/6 340/3/6
f 341/4/6 342/4/6 345/4/6
f 345/4/6 342/4/6 346/4/6
f 343/4/6 344/4/6 347/4/6
f 347/4/6 344/4/6 348/4/6
