# MagicaVoxel @ Ephtracy

# group
o 

# material
mtllib tree1.mtl
usemtl palette

# normals
vn -1 0 0
vn 1 0 0
vn 0 0 1
vn 0 0 -1
vn 0 -1 0
vn 0 1 0

# texcoords
vt 0.306641 0.5
vt 0.943359 0.5
vt 0.947266 0.5
vt 0.986328 0.5

# verts
v -0.8 3.1 1
v -0.8 3.1 -0.1
v -0.8 4 1
v -0.8 4 -0.1
v -0.7 2.3 0.9
v -0.7 2.3 -0.8
v -0.7 3.1 0.9
v -0.7 3.1 -0.1
v -0.7 3.6 -0.1
v -0.7 3.6 -0.8
v -0.3 0 0.4
v -0.3 0 -0.3
v -0.3 2.3 0.4
v -0.3 2.3 -0.3
v 0.2 3.1 1
v 0.2 3.1 0.9
v 0.2 3.6 0.9
v 0.2 3.6 -0.1
v 0.2 4 1
v 0.2 4 -0.1
v 0.3 0 0.4
v 0.3 0 -0.3
v 0.3 2.3 0.4
v 0.3 2.3 -0.3
v 0.8 2.3 0.9
v 0.8 2.3 -0.8
v 0.8 3.6 0.9
v 0.8 3.6 -0.8
v -0.8 3.1 1
v -0.8 4 1
v 0.2 3.1 1
v 0.2 4 1
v -0.7 2.3 0.9
v -0.7 3.1 0.9
v 0.2 3.1 0.9
v 0.2 3.6 0.9
v 0.8 2.3 0.9
v 0.8 3.6 0.9
v -0.3 0 0.4
v -0.3 2.3 0.4
v 0.3 0 0.4
v 0.3 2.3 0.4
v -0.8 3.1 -0.1
v -0.8 4 -0.1
v -0.7 3.1 -0.1
v -0.7 3.6 -0.1
v 0.2 3.6 -0.1
v 0.2 4 -0.1
v -0.3 0 -0.3
v -0.3 2.3 -0.3
v 0.3 0 -0.3
v 0.3 2.3 -0.3
v -0.7 2.3 -0.8
v -0.7 3.6 -0.8
v 0.8 2.3 -0.8
v 0.8 3.6 -0.8
v -0.3 0 0.4
v 0.3 0 0.4
v -0.3 0 -0.3
v 0.3 0 -0.3
v -0.7 2.3 0.9
v 0.8 2.3 0.9
v -0.3 2.3 0.4
v 0.3 2.3 0.4
v -0.3 2.3 -0.3
v 0.3 2.3 -0.3
v -0.7 2.3 -0.8
v 0.8 2.3 -0.8
v -0.8 3.1 1
v 0.2 3.1 1
v -0.7 3.1 0.9
v 0.2 3.1 0.9
v -0.8 3.1 -0.1
v -0.7 3.1 -0.1
v 0.2 3.6 0.9
v 0.8 3.6 0.9
v -0.7 3.6 -0.1
v 0.2 3.6 -0.1
v -0.7 3.6 -0.8
v 0.8 3.6 -0.8
v -0.8 4 1
v 0.2 4 1
v -0.8 4 -0.1
v 0.2 4 -0.1

# faces
f 3/2/1 2/2/1 1/2/1
f 4/2/1 2/2/1 3/2/1
f 7/3/1 6/3/1 5/3/1
f 8/3/1 6/3/1 7/3/1
f 9/3/1 6/3/1 8/3/1
f 10/3/1 6/3/1 9/3/1
f 13/4/1 12/4/1 11/4/1
f 14/4/1 12/4/1 13/4/1
f 15/2/2 16/2/2 17/2/2
f 15/2/2 17/2/2 19/2/2
f 17/2/2 18/2/2 19/2/2
f 19/2/2 18/2/2 20/2/2
f 21/4/2 22/4/2 23/4/2
f 23/4/2 22/4/2 24/4/2
f 25/3/2 26/3/2 27/3/2
f 27/3/2 26/3/2 28/3/2
f 31/2/3 30/2/3 29/2/3
f 32/2/3 30/2/3 31/2/3
f 35/3/3 34/3/3 33/3/3
f 37/3/3 35/3/3 33/3/3
f 37/3/3 36/3/3 35/3/3
f 38/3/3 36/3/3 37/3/3
f 41/4/3 40/4/3 39/4/3
f 42/4/3 40/4/3 41/4/3
f 43/2/4 44/2/4 45/2/4
f 45/2/4 44/2/4 46/2/4
f 46/2/4 44/2/4 47/2/4
f 47/2/4 44/2/4 48/2/4
f 49/4/4 50/4/4 51/4/4
f 51/4/4 50/4/4 52/4/4
f 53/3/4 54/3/4 55/3/4
f 55/3/4 54/3/4 56/3/4
f 59/4/5 58/4/5 57/4/5
f 60/4/5 58/4/5 59/4/5
f 63/3/5 62/3/5 61/3/5
f 64/3/5 62/3/5 63/3/5
f 65/3/5 63/3/5 61/3/5
f 66/3/5 62/3/5 64/3/5
f 67/3/5 65/3/5 61/3/5
f 67/3/5 66/3/5 65/3/5
f 68/3/5 62/3/5 66/3/5
f 68/3/5 66/3/5 67/3/5
f 71/2/5 70/2/5 69/2/5
f 72/2/5 70/2/5 71/2/5
f 73/2/5 71/2/5 69/2/5
f 74/2/5 71/2/5 73/2/5
f 75/3/6 76/3/6 78/3/6
f 77/3/6 78/3/6 79/3/6
f 78/3/6 76/3/6 80/3/6
f 79/3/6 78/3/6 80/3/6
f 81/2/6 82/2/6 83/2/6
f 83/2/6 82/2/6 84/2/6
